<svg width="137" height="92" viewBox="0 0 137 92" fill="none" xmlns="http://www.w3.org/2000/svg">
<path d="M3.95078 72.113H10.0308L14.0108 85.873H9.31078L8.79078 83.233H5.23078L4.65078 85.873H0.150781L3.95078 72.113ZM8.31078 80.773L7.01078 74.753L5.65078 80.773H8.31078ZM19.5952 86.193C17.7152 86.193 16.1285 85.8464 14.8352 85.153L15.8352 82.053C17.2085 82.5464 18.4352 82.793 19.5152 82.793C20.1018 82.793 20.5285 82.7264 20.7952 82.593C21.0752 82.4464 21.2152 82.233 21.2152 81.953C21.2152 81.7664 21.1418 81.6064 20.9952 81.473C20.8485 81.3264 20.5552 81.1664 20.1152 80.993C19.6752 80.8197 19.0152 80.6064 18.1352 80.353C17.0552 80.033 16.2152 79.513 15.6152 78.793C15.0152 78.0597 14.7152 77.2197 14.7152 76.273C14.7152 74.8064 15.1952 73.6997 16.1552 72.953C17.1285 72.193 18.4352 71.813 20.0752 71.813C20.9285 71.813 21.7685 71.9064 22.5952 72.093C23.4218 72.2664 24.1552 72.5264 24.7952 72.873L23.7152 75.893C22.9685 75.6397 22.3152 75.4597 21.7552 75.353C21.2085 75.233 20.6752 75.173 20.1552 75.173C19.2752 75.173 18.8352 75.413 18.8352 75.893C18.8352 76.133 18.9752 76.3397 19.2552 76.513C19.5485 76.673 20.1418 76.8797 21.0352 77.133C22.4352 77.5064 23.4952 78.0797 24.2152 78.853C24.9352 79.613 25.2952 80.5264 25.2952 81.593C25.2952 83.073 24.8152 84.213 23.8552 85.013C22.8952 85.7997 21.4752 86.193 19.5952 86.193ZM27.1711 72.113H31.8111V77.733H33.2511L35.9111 72.113H40.5311V73.013L37.3711 78.933L40.9911 84.973V85.873H36.1311L33.1711 80.413H31.8111V85.873H27.1711V72.113ZM42.5031 72.113H52.1631V75.153H47.3631V77.653H51.7431V80.173H47.3631V82.833H52.1631V85.873H42.5031V72.113ZM91.468 72.113H95.788V82.833H100.568V85.873H91.468V72.113ZM102.23 72.113H106.85V85.873H102.23V72.113Z" fill="black"/>
<path d="M56.0577 85.993C55.351 85.993 54.7977 85.7997 54.3977 85.413C53.9977 85.0264 53.7977 84.5397 53.7977 83.953C53.7977 83.353 54.0043 82.8664 54.4177 82.493C54.831 82.1197 55.3777 81.933 56.0577 81.933C56.7243 81.933 57.2643 82.133 57.6777 82.533C58.091 82.9197 58.2977 83.393 58.2977 83.953C58.2977 84.5797 58.1043 85.0797 57.7177 85.453C57.331 85.813 56.7777 85.993 56.0577 85.993ZM66.5073 86.193C65.0673 86.193 63.7873 85.8864 62.6673 85.273C61.5607 84.6597 60.694 83.813 60.0673 82.733C59.454 81.6397 59.1473 80.3997 59.1473 79.013C59.1473 77.613 59.454 76.3664 60.0673 75.273C60.694 74.1797 61.5607 73.333 62.6673 72.733C63.7873 72.1197 65.0673 71.813 66.5073 71.813C67.9473 71.813 69.2207 72.1197 70.3273 72.733C71.4473 73.333 72.314 74.1797 72.9273 75.273C73.554 76.353 73.8673 77.5997 73.8673 79.013C73.8673 80.3997 73.554 81.6397 72.9273 82.733C72.314 83.813 71.4473 84.6597 70.3273 85.273C69.2073 85.8864 67.934 86.193 66.5073 86.193ZM66.5073 82.553C67.3473 82.553 68.034 82.2264 68.5673 81.573C69.114 80.9197 69.3873 80.0597 69.3873 78.993C69.3873 78.2864 69.2607 77.6597 69.0073 77.113C68.7673 76.553 68.4273 76.1197 67.9873 75.813C67.5473 75.493 67.0473 75.333 66.4873 75.333C65.9407 75.333 65.4473 75.493 65.0073 75.813C64.5673 76.1197 64.2273 76.553 63.9873 77.113C63.7473 77.6597 63.6273 78.2864 63.6273 78.993C63.6273 80.0597 63.894 80.9197 64.4273 81.573C64.9607 82.2264 65.654 82.553 66.5073 82.553ZM75.7844 72.113H79.8044L85.2844 79.533V72.113H88.8644V85.873H84.8644L79.3444 78.713V85.873H75.7844V72.113ZM109.456 72.113H113.476L118.956 79.533V72.113H122.536V85.873H118.536L113.016 78.713V85.873H109.456V72.113ZM125.14 72.113H134.8V75.153H130V77.653H134.38V80.173H130V82.833H134.8V85.873H125.14V72.113Z" fill="#2A2929"/>
<path fill-rule="evenodd" clip-rule="evenodd" d="M58.8849 0.825785C52.5895 1.87794 44.1038 4.33456 39.9077 7.09501C30.4964 13.2871 30.4027 21.3033 38.7009 26.1339C42.0786 28.0998 40.9794 29.3462 41.4403 32.8845C42.3359 39.7586 43.1354 42.0888 46.0531 44.8217C50.4725 48.962 57.1521 50.0411 67.4934 50.0194C76.8224 49.9994 83.7055 47.8957 87.4164 44.8217C89.9849 42.6949 92.2229 37.2257 92.2229 32.8845C92.2229 29.4971 92.1423 30.3283 95.7651 28.4191C104.779 23.6694 106.016 13.247 98.655 7.09501C92.2513 1.74252 71.8341 -1.33939 58.8849 0.825785ZM88.9669 4.78227C92.6602 5.97282 95.8029 7.66611 97.7805 9.53115L100.854 12.4292L96.785 9.943C87.3964 4.207 72.3841 3.32826 56.7656 9.27436C53.5339 10.5041 48.0442 12.4158 44.3743 13.5288C40.7054 14.6419 36.1419 16.7395 35.31 17.4873C33.8982 18.7563 34.1229 19.1648 34.1229 17.4873C34.1229 15.2496 39.6629 9.65037 44.1007 7.40099C51.8827 3.45832 58.1042 2.36281 71.056 2.65628C80.8047 2.87722 84.3696 3.29991 88.9669 4.78227ZM90.9923 9.27436C95.4343 10.6708 101.274 14.9753 101.274 17.5657C101.274 20.0594 98.9254 23.4418 95.7651 25.4994C94.1913 26.5241 92.5973 27.3628 92.2229 27.3628C92.0305 27.3628 92.1951 26.6763 92.2229 25.6989C92.2493 24.7704 92.4336 23.8033 92.5248 22.3825C92.8421 17.4302 92.0651 16.6144 89.8491 14.5735C86.5931 11.5746 81.1514 9.86964 72.9304 9.27436C69.1137 8.99757 66.1515 8.61239 66.347 8.41813C67.1285 7.64193 78.4816 7.03582 82.8187 7.40099C85.3579 7.61442 88.7788 8.5782 90.9923 9.27436ZM80.7753 12.4292C86.8475 14.2342 90.362 15.9917 90.362 19.4057V21.5434L86.3749 19.4057C75.3142 14.9678 59.0637 14.4768 47.9653 18.9289L44.1956 20.7243V18.9289C44.1956 16.8987 44.5867 15.6873 45.2448 15.6823C45.8223 15.6782 49.118 14.7184 51.6571 13.5387C54.1963 12.3581 57.984 11.7296 59.8307 11.3277C64.4498 10.3248 75.5762 10.8834 80.7753 12.4292ZM42.5168 21.5434V26.5632L39.3968 24.0562C37.5275 23.1091 36.1063 22.0165 35.8209 21.277C35.1905 19.6463 37.5112 17.4873 39.9077 17.4873C41.343 17.4873 42.5168 17.128 42.5168 21.5434ZM77.7103 19.4057C80.1562 19.9218 84.1824 20.964 86.3749 22.0611L90.362 24.0562L90.325 28.4191C90.1983 43.6145 84.6592 47.849 65.6915 47.2504C57.6375 46.9969 55.7355 46.6551 52.1471 44.8217C49.8514 43.6479 47.1091 41.4143 46.0531 39.8586C44.3811 37.3941 44.1645 36.1635 44.3743 30.32L44.6153 23.611L47.9653 22.167C55.3578 18.5837 68.3066 17.424 77.7103 19.4057Z" fill="black"/>
</svg>
